PathFileType	4	(X/Y/Z)	C:/Users/opensim2020/Desktop/walking_exp_matlab/subject06_walking19_straight_04.trc																																																																																																																																																	
DataRate	CameraRate	NumFrames	NumMarkers	Units	OrigDataRate	OrigDataStartFrame	OrigNumFrames																																																																																																																																													
100	100	4	49	mm	100	4544	340																																																																																																																																													
Frame#	Time	LFHD			RFHD			LBHD			RBHD			C7			T10			CLAV			STRN			RBAK			LSHO			LUPA			LELB			LFRM			LWRA			LWRB			LFIN			RSHO			RUPA			RELB			RFRM			RWRA			RWRB			RFIN			LASI			RASI			LPSI			RPSI			LTHI			LKNE			LTIB			LANK			LHEE			LTOE			RTHI			RKNE			RTIB			RANK			RHEE			RTOE			*39			*40			*41			*42			*43			*44			*45			*46			*47			*48		
		X1	Y1	Z1	X2	Y2	Z2	X3	Y3	Z3	X4	Y4	Z4	X5	Y5	Z5	X6	Y6	Z6	X7	Y7	Z7	X8	Y8	Z8	X9	Y9	Z9	X10	Y10	Z10	X11	Y11	Z11	X12	Y12	Z12	X13	Y13	Z13	X14	Y14	Z14	X15	Y15	Z15	X16	Y16	Z16	X17	Y17	Z17	X18	Y18	Z18	X19	Y19	Z19	X20	Y20	Z20	X21	Y21	Z21	X22	Y22	Z22	X23	Y23	Z23	X24	Y24	Z24	X25	Y25	Z25	X26	Y26	Z26	X27	Y27	Z27	X28	Y28	Z28	X29	Y29	Z29	X30	Y30	Z30	X31	Y31	Z31	X32	Y32	Z32	X33	Y33	Z33	X34	Y34	Z34	X35	Y35	Z35	X36	Y36	Z36	X37	Y37	Z37	X38	Y38	Z38	X39	Y39	Z39	X40	Y40	Z40	X41	Y41	Z41	X42	Y42	Z42	X43	Y43	Z43	X44	Y44	Z44	X45	Y45	Z45	X46	Y46	Z46	X47	Y47	Z47	X48	Y48	Z48	X49	Y49	Z49
																																																																																																																																																				
1	0	-1181.03052	1670.64844	971.12378	-1181.37842	1659.58057	1102.97681	-1313.72046	1613.07141	970.2724	-1311.61816	1607.08948	1099.40344	-1310.53711	1455.44434	1022.26514	-1336.86255	1126.83972	1017.40167	-1196.5144	1380.85925	1026.98083	-1155.92847	1204.43982	1017.84894	-1382.23303	1280.9021	1093.49536	-1245.33252	1414.54907	862.86493	-1237.3833	1212.85657	787.58868	-1233.72705	1099.9397	774.64417	-1172.30518	962.18719	757.09882	-1081.89014	873.57721	803.75421	-1137.34509	848.66974	766.43286	-1072.1438	785.25391	768.90033	-1252.98816	1407.10022	1185.57312	-1295.04272	1209.08752	1270.87366	-1285.86121	1087.52856	1284.44775	-1263.0863	969.75043	1302.07922	-1190.01221	837.13647	1272.66199	-1246.34131	833.15601	1310.00562	-1202.58594	760.5564	1313.4209	-1162.5697	960.20953	911.94635	-1165.66956	970.54462	1132.37866	-1318.18091	994.7594	934.39233	-1317.07202	1002.26581	1103.77429	-1231.14209	640.36218	861.77222	-1233.79761	477.29797	885.13257	-1416.06665	303.91553	870.66754	-1539.89319	179.37283	893.76001	-1585.30945	197.41377	931.56018	-1462.66541	58.37054	919.30652	-1208.81445	639.63361	1180.43933	-1196.05798	516.86584	1149.55066	-1243.56396	253.63414	1149.07959	-1268.05969	68.05209	1105.72119	-1311.33789	42.13146	1065.12903	-1115.27942	35.62802	1090.44653	-1282.58752	1706.36157	1029.82593	NaN	NaN	NaN	NaN	NaN	NaN	NaN	NaN	NaN	NaN	NaN	NaN	NaN	NaN	NaN	NaN	NaN	NaN	NaN	NaN	NaN	NaN	NaN	NaN	NaN	NaN	NaN
2	0.01	-1175.75293	1670.87061	971.49207	-1175.91736	1659.86694	1103.33533	-1308.42529	1613.00879	970.85986	-1306.09973	1607.1532	1100.05359	-1304.98804	1455.61938	1023.06445	-1331.36719	1126.98816	1018.51978	-1190.91089	1380.95947	1027.61011	-1150.56921	1204.49451	1018.49213	-1376.57117	1281.13171	1094.59717	-1240.16406	1414.54041	863.49933	-1233.20569	1212.87744	788.16498	-1230.05554	1099.84485	775.3017	-1169.74255	961.67407	757.16809	-1079.57019	872.07135	803.22089	-1135.66602	847.73547	765.92847	-1071.18005	783.80194	768.20959	-1246.97119	1407.32617	1186.2522	-1288.86279	1209.30237	1271.86829	-1279.73132	1087.9281	1285.84473	-1256.64697	970.20142	1303.552	-1183.27625	837.82245	1274.19055	-1239.51355	833.71429	1311.62366	-1195.60071	761.32727	1315.11279	-1157.02649	960.43085	912.97253	-1160.28479	970.69427	1133.27441	-1312.86621	994.81464	935.38196	-1311.62952	1002.25897	1104.75867	-1222.87231	640.59137	862.99213	-1223.60327	477.5549	886.83136	-1405.15283	303.80334	871.04871	-1528.53271	178.82558	892.85962	-1573.89282	195.03763	931.8302	-1447.96399	59.64368	915.58521	-1205.27039	639.38812	1181.12146	-1193.27271	516.46216	1150.16101	-1242.2218	253.39226	1149.27991	-1267.85583	67.97842	1105.71509	-1311.33386	42.20956	1065.12134	-1115.26733	35.60514	1090.46155	-1277.33545	1706.42456	1030.31042	NaN	NaN	NaN	NaN	NaN	NaN	NaN	NaN	NaN	NaN	NaN	NaN	NaN	NaN	NaN	NaN	NaN	NaN	NaN	NaN	NaN	NaN	NaN	NaN	NaN	NaN	NaN
3	0.02	-1170.62219	1671.01196	971.82458	-1170.46338	1660.10205	1103.65979	-1303.18982	1612.99866	971.34393	-1300.65063	1607.17126	1100.8175	-1299.41785	1455.81335	1023.77972	-1325.94971	1127.12622	1019.63318	-1185.30212	1381.07959	1028.27686	-1145.24939	1204.54492	1019.08051	-1370.99536	1281.40674	1095.65808	-1235.00012	1414.46973	864.08765	-1228.83435	1212.72156	788.82849	-1226.27319	1099.79785	775.71967	-1167.30579	961.1203	757.16522	-1077.77551	870.51953	802.7157	-1134.23218	846.92944	765.68457	-1070.271	782.28168	767.46466	-1240.98022	1407.51208	1186.90845	-1282.73975	1209.77283	1273.1377	-1273.61877	1088.29114	1287.15613	-1250.27917	970.64838	1305.01819	-1176.60095	838.41125	1275.63269	-1232.88489	834.23737	1313.20471	-1188.66418	761.94531	1316.6438	-1152.22644	960.51837	913.95239	-1154.96411	970.64331	1134.27625	-1307.51086	994.86951	936.2514	-1306.2771	1002.18384	1105.70471	-1214.61865	640.97656	864.11578	-1213.85571	478.05161	888.52356	-1393.91199	303.43536	871.49805	-1515.99536	177.25519	892.54321	-1561.62463	191.59389	932.27667	-1431.94397	60.53708	911.79865	-1201.4939	639.02246	1181.56433	-1190.41003	515.97754	1150.68774	-1240.88708	253.16701	1149.40051	-1267.64478	67.92695	1105.68335	-1311.30933	42.26767	1065.21594	-1115.21667	35.57686	1090.4281	-1272.07458	1706.47266	1030.78601	NaN	NaN	NaN	NaN	NaN	NaN	NaN	NaN	NaN	NaN	NaN	NaN	NaN	NaN	NaN	NaN	NaN	NaN	NaN	NaN	NaN	NaN	NaN	NaN	NaN	NaN	NaN
4	0.03	-1165.41089	1671.20093	972.11243	-1164.93604	1660.29749	1103.89197	-1297.83521	1613.02112	972.02881	-1295.12268	1607.23572	1101.4259	-1293.89783	1455.96069	1024.50452	-1320.57837	1127.28613	1020.73273	-1179.67444	1381.17346	1028.73865	-1140.06958	1204.58228	1019.61389	-1365.46582	1281.74341	1096.71838	-1229.9386	1414.43774	864.64618	-1224.59985	1212.66138	789.3443	-1222.77502	1099.6748	776.26105	-1164.99915	960.55212	756.90588	-1076.11816	869.01624	802.24579	-1132.88831	846.04291	765.2511	-1069.62659	780.74738	766.72412	-1234.94836	1407.69287	1187.48657	-1276.47449	1210.04688	1274.18176	-1267.42419	1088.66162	1288.43823	-1243.87549	971.0874	1306.38525	-1169.96057	838.99976	1276.90918	-1226.12036	834.63153	1314.4989	-1181.80237	762.5368	1318.11047	-1146.49561	961.03094	914.74316	-1149.70935	970.56024	1135.20374	-1302.19543	995.04413	937.11731	-1300.96082	1002.06372	1106.58252	-1206.42151	641.4306	865.25433	-1204.3927	478.78061	890.14508	-1382.28137	302.82413	872.12262	-1502.56775	174.78343	892.42554	-1548.44324	187.22816	932.85718	-1415.07544	60.96782	908.10669	-1197.80273	638.76953	1182.11902	-1187.59741	515.53876	1151.27527	-1239.39709	252.99239	1149.69519	-1267.47302	67.92203	1105.71057	-1311.33923	42.37017	1065.28137	-1115.24329	35.61272	1090.4071	-1266.79297	1706.53088	1031.28979	NaN	NaN	NaN	NaN	NaN	NaN	NaN	NaN	NaN	NaN	NaN	NaN	NaN	NaN	NaN	NaN	NaN	NaN	NaN	NaN	NaN	NaN	NaN	NaN	NaN	NaN	NaN
